<?xml version="1.0" encoding="utf-8"?><svg xmlns="http://www.w3.org/2000/svg" xmlns:xlink="http://www.w3.org/1999/xlink"><symbol viewBox="-1.07 -1.07 34.13 34.13" id="eye" xmlns="http://www.w3.org/2000/svg"><path fill-rule="evenodd" clip-rule="evenodd" d="M21.333 16a5.333 5.333 0 11-10.666 0 5.333 5.333 0 0110.666 0zm-2.666 0a2.667 2.667 0 11-5.334 0 2.667 2.667 0 015.334 0z"/><path fill-rule="evenodd" clip-rule="evenodd" d="M16 4c7.455 0 13.72 5.1 15.496 12C29.72 22.9 23.456 28 16 28 8.545 28 2.28 22.9.504 16 2.28 9.1 8.544 4 16 4zm0 21.333c-5.967 0-11.025-3.922-12.724-9.333 1.7-5.41 6.757-9.333 12.724-9.333 5.968 0 11.025 3.922 12.724 9.333-1.699 5.41-6.756 9.333-12.724 9.333z"/></symbol><symbol viewBox="-1.07 -1.07 34.13 34.13" id="piggybank" xmlns="http://www.w3.org/2000/svg"><path d="M22.814 16.5a1.167 1.167 0 100-2.333 1.167 1.167 0 000 2.334z"/><path fill-rule="evenodd" clip-rule="evenodd" d="M14.063 1.333c3.2 0 5.852 2.342 6.337 5.406C21.033 6.35 21.87 6 22.855 6a2.667 2.667 0 012.666 2.667v.486c.902.743 1.517 1.675 1.912 2.456.173.343.326.699.456 1.058h.112a2.667 2.667 0 012.666 2.667v5.25a2.667 2.667 0 01-2.666 2.666h-.215a7.617 7.617 0 01-.596 1.059c-.31.458-.704.93-1.19 1.332v2.36a2.667 2.667 0 01-2.666 2.666h-4A2.667 2.667 0 0116.667 28v-.75h-1.333V28a2.667 2.667 0 01-2.667 2.667h-4A2.667 2.667 0 016.001 28v-3.128c-.875-1.304-1.9-3.464-1.993-7.007A3.669 3.669 0 015 10.667v2.332A9.244 9.244 0 017.926 9.63a6.417 6.417 0 016.137-8.298zm3.75 6.417c0 .084-.003.168-.008.25h-5.138c-.725 0-1.51.132-2.3.393a3.75 3.75 0 117.445-.643zM4.266 15.013c.14-.591.332-1.147.568-1.666a1 1 0 00-.568 1.666zm18.589-6.346v2c2 .667 2.896 3.5 2.896 4.667h2.25v5.25h-2.25c0 1.4-1.25 3.416-2.417 3.416v4h-4v-3.416h-6.667V28h-4v-4c-.666-.834-2-2.666-2-6.666 0-4.4 3.667-6.667 6-6.667h7.334c.057-.058.12-.123.187-.195l.122-.13c.62-.666 1.56-1.675 2.545-1.675z"/></symbol></svg>