<svg width="32" height="32" viewBox="0 0 32 32" xmlns="http://www.w3.org/2000/svg">
<path d="M22.8136 16.5008C23.4581 16.5008 23.9806 15.9783 23.9806 15.3338C23.9806 14.6894 23.4581 14.1669 22.8136 14.1669C22.1691 14.1669 21.6467 14.6894 21.6467 15.3338C21.6467 15.9783 22.1691 16.5008 22.8136 16.5008Z"/>
<path fill-rule="evenodd" clip-rule="evenodd" d="M14.0626 1.33331C17.2624 1.33331 19.9152 3.67542 20.4002 6.73885C21.0334 6.35095 21.8685 6.00014 22.8546 6.00014C24.3273 6.00014 25.5212 7.19405 25.5212 8.66681V9.15346C26.4232 9.89571 27.0375 10.8283 27.4325 11.6092C27.6058 11.9518 27.7587 12.308 27.8893 12.6668H28.0008C29.4736 12.6668 30.6675 13.8607 30.6675 15.3335V20.5836C30.6675 22.0564 29.4736 23.2503 28.0008 23.2503H27.7858C27.6082 23.6343 27.4046 23.9913 27.1902 24.3089C26.8807 24.7674 26.4856 25.2397 26.0006 25.6413V28.0001C26.0006 29.4729 24.8067 30.6668 23.334 30.6668H19.334C17.8612 30.6668 16.6673 29.4729 16.6673 28.0001V27.2502H15.3339V28.0001C15.3339 29.4729 14.14 30.6668 12.6673 30.6668H8.66728C7.19452 30.6668 6.00062 29.4729 6.00062 28.0001V24.8725C5.12632 23.5679 4.10155 21.4078 4.0076 17.8651C2.4647 17.4321 1.33337 16.0151 1.33337 14.3339C1.33337 12.3085 2.97525 10.6666 5.0006 10.6666V12.9989C5.71816 11.5812 6.76108 10.4537 7.92579 9.63109C7.74369 9.03625 7.64571 8.40465 7.64571 7.75017C7.64571 4.20624 10.5186 1.33331 14.0626 1.33331ZM17.8128 7.75017C17.8128 7.83417 17.81 7.91752 17.8046 8.00014H12.6673C11.942 8.00014 11.1576 8.13244 10.3673 8.39322C10.3312 8.18429 10.3124 7.96943 10.3124 7.75017C10.3124 5.679 11.9914 3.99998 14.0626 3.99998C16.1337 3.99998 17.8128 5.679 17.8128 7.75017ZM4.2656 15.0128C4.40596 14.4217 4.59832 13.8663 4.83362 13.3472C4.36051 13.4267 4.00004 13.8382 4.00004 14.3339C4.00004 14.5959 4.10076 14.8344 4.2656 15.0128ZM22.8546 8.66681V10.6668C24.8546 11.3335 25.751 14.1668 25.751 15.3335H28.0008V20.5836H25.751C25.751 21.9837 24.5007 24.0001 23.334 24.0001V28.0001H19.334V24.5835H12.6673V28.0001H8.66728V24.0001C8.00062 23.1663 6.66728 21.3335 6.66728 17.3335C6.66728 12.9337 10.3339 10.6668 12.6673 10.6668H20.0006C20.0581 10.6093 20.1207 10.5437 20.1879 10.4721C20.2271 10.4304 20.2679 10.3866 20.3101 10.3413C20.9301 9.6757 21.87 8.66681 22.8546 8.66681Z"/>
</svg>
