<svg width="32" height="32" viewBox="0 0 32 32" xmlns="http://www.w3.org/2000/svg">
<path fill-rule="evenodd" clip-rule="evenodd" d="M21.3334 16C21.3334 18.9455 18.9456 21.3333 16.0001 21.3333C13.0546 21.3333 10.6667 18.9455 10.6667 16C10.6667 13.0545 13.0546 10.6667 16.0001 10.6667C18.9456 10.6667 21.3334 13.0545 21.3334 16ZM18.6667 16C18.6667 17.4728 17.4728 18.6667 16.0001 18.6667C14.5273 18.6667 13.3334 17.4728 13.3334 16C13.3334 14.5272 14.5273 13.3333 16.0001 13.3333C17.4728 13.3333 18.6667 14.5272 18.6667 16Z" />
<path fill-rule="evenodd" clip-rule="evenodd" d="M16.0001 4C23.4554 4 29.7198 9.09909 31.496 16C29.7198 22.9009 23.4554 28 16.0001 28C8.54472 28 2.28032 22.9009 0.50415 16C2.28032 9.09909 8.54472 4 16.0001 4ZM16.0001 25.3333C10.0327 25.3333 4.97517 21.4108 3.27639 16C4.97517 10.5892 10.0327 6.66667 16.0001 6.66667C21.9675 6.66667 27.025 10.5892 28.7238 16C27.025 21.4108 21.9675 25.3333 16.0001 25.3333Z" />
</svg>
